Patient4_TMGait_0pt7_02_left_21_EMG.mot
version=1
nRows=40
nColumns=33
inDegrees=no
endheader
time	1LAddLong	2LGlutMax	3LGlutMed	4LIliopsoas	5LSemiMemb	6LBicFemLong	7LRecFem	8LVastMed	9LVastLat	10LGasMed	11LTibAnt	12lTibPost	13LPeroneusLong	14LSol	15LExtDigLong	16LFlexDigLong	17RAddLong	18RGlutMax	19RGlutMed	20RIliopsoas	21RSemiMemb	22RBicFemLong	23RRecFem	24RVastMed	25RVastLat	26RGasMed	27RTibAnt	28RTibPost	29RPeroneusLong	30RSol	31RExtDigLong	32RFlexDigLong
23.83	0.015564	0.40085	-0.024872	0.012207	-0.011444	-0.004578	0.015869	0.015411	0.23422	0.036011	0.058594	0.004425	0.053711	-0.15686	0.000305	-0.037537	0.02182	-0.21194	0.022583	0.15137	-0.12909	0.010071	-0.012665	0.29938	-0.2475	0.009613	-0.18051	-0.005035	0.24948	-0.30014	0.000305	0.000916
23.831	0.016479	0.41931	-0.027924	0.018311	-0.009766	-0.011444	0.03479	0.01297	0.23529	0.012665	0.11566	-0.007172	-0.000153	-0.1239	0.071869	-0.029449	0.048828	-0.14481	0.78934	0.22339	-0.15533	-0.011444	0.29556	0.11444	-0.13489	0.011292	-0.17181	-0.013885	-0.3688	-0.21545	-0.000763	0.000458
23.832	0.007172	0.44266	-0.022278	-0.006866	-0.007019	-0.014954	0.004425	0.013275	0.22858	0.021057	0.1857	0	-0.018768	-0.040741	0.37323	-0.025787	0.049591	-0.11459	1.6661	0.14801	-0.06958	-0.067291	0.32654	-0.017242	0.23041	0.011444	-0.12909	-0.021057	-0.46249	-0.15884	-0.000916	0.002594
23.833	-0.002289	0.43961	-0.018158	-0.005798	-0.008545	-0.027771	0.029907	0.010834	0.23529	-0.001831	0.13412	-0.000763	0.006104	-0.002441	0.27557	-0.020294	0.021515	-0.17349	0.95459	0.068665	-0.11154	-0.08667	0.10681	0.067596	0.30487	-0.005341	0.009308	-0.03006	0.09613	-0.077057	-0.00061	0.002136
23.834	-0.009003	0.43762	-0.007172	0.018005	-0.011444	-0.041046	0.020294	0.014038	0.22903	-0.014648	0.041351	-0.001373	0.082092	0.018921	0.51117	-0.019379	-0.074005	-0.215	0.024414	0.068512	-0.063171	-0.081635	-0.26413	0.1152	0.068817	-0.022583	0.012207	-0.033875	0.40161	-0.045929	0.000916	-0.007172
23.835	-0.019073	0.45593	-0.012512	0.055084	-0.015564	-0.015106	0.015717	0.014343	0.2301	-0.006714	0.075226	-0.002594	0.076752	-0.026093	0.029144	-0.026093	-0.080719	-0.19318	-0.05188	0.053558	0.019836	-0.1358	-0.22125	0.28122	-0.48859	-0.031128	0.083466	0.056915	-0.47485	0.065918	-0.001068	-0.010376
23.836	-0.018158	0.45227	-0.010529	0.080414	-0.02182	-0.027313	-0.010986	0.010986	0.23682	-0.024109	-0.14099	-0.002899	0.091705	-0.005493	-0.18463	-0.018311	-0.046082	-0.17059	0.18249	0.054932	-0.049896	-0.11505	-0.11185	0.27679	-0.22232	-0.032654	0.21637	0.02594	-1.1987	-0.046387	-0.00061	-0.002899
23.837	-0.012512	0.39352	-0.010834	0.014038	-0.02533	-0.02182	-0.008698	0.021057	0.23834	-0.036469	-0.19547	0.001678	0.11551	0.033875	-0.16663	-0.018463	-0.022278	-0.17822	-0.17319	-0.005341	0.075989	-0.072327	-0.072937	0.14313	0.15243	-0.027771	0.29968	-0.001831	-0.41962	-0.087738	0.001221	-0.007629
23.838	-0.009918	0.37964	-0.013275	-0.022888	-0.024719	-0.007629	-0.015411	0.017853	0.23956	-0.085144	-0.22369	0.010529	0.099335	0.009918	-0.24872	-0.021667	0.019226	-0.15411	0.066528	-0.041199	0.10651	-0.084076	-0.085754	-0.066681	0.26504	-0.016632	0.19073	0.000916	0.69214	-0.079956	0.003052	-0.004578
23.839	0.001678	0.37476	-0.028076	-0.034485	-0.021973	-0.036011	-0.016632	0.020599	0.24277	-0.092773	-0.17288	0.005493	0.003204	-0.012817	-0.24902	-0.022125	0.021973	-0.18707	0.51361	0.003357	0.098419	-0.13412	-0.015411	-0.093842	0.20828	-0.013733	-0.15335	-0.00885	1.3477	-0.077057	0.001068	-0.000916
23.84	0.007782	0.36789	-0.043335	-0.024261	-0.020905	-0.024719	-0.039368	0.027924	0.23727	-0.069122	-0.034027	0.004578	-0.027924	-0.064545	-0.29022	-0.01358	0.03067	-0.10193	0.58289	-0.014038	0.12329	-0.10727	-0.050049	-0.070343	0.12726	-0.01358	-0.22201	-0.002747	0.48584	0.034943	0.005188	-0.007782
23.841	0.007172	0.3125	-0.035706	-0.007172	-0.013733	-0.031586	-0.065765	0.011902	0.24429	-0.08606	0.085754	0.002747	-0.008392	-0.071869	-0.18768	-0.004578	0.048065	-0.12268	0.60562	-0.019836	0.006104	-0.079346	-0.10895	-0.14114	0.081635	-0.010681	-0.11383	-0.010529	-0.059509	0.019379	0.001678	-0.001831
23.842	0.016479	0.30685	-0.03952	-0.020447	0.000305	-0.037689	-0.059814	0.008392	0.23163	-0.06073	0.069275	0.002441	-0.012207	-0.0737	-0.13351	-0.020599	0.019989	-0.12222	0.33081	-0.11337	0.008392	-0.1886	-0.081787	-0.089111	-0.11551	-0.018311	-0.012054	-0.010071	-0.1973	0.11215	0.00351	-0.00473
23.843	0.006256	0.28	-0.040741	-0.007477	-0.008698	-0.04425	-0.064392	0.010986	0.23117	-0.008545	0.074005	0.002747	0.019684	-0.061798	-0.15549	0.001984	-0.037689	-0.23025	0.11627	-0.20264	0.019073	-0.19638	0.076447	0.18829	-0.36865	-0.013428	-0.001984	-0.012207	-0.50827	0.12009	0.001068	-0.002441
23.844	0.001678	0.25635	-0.055695	0.019226	-0.018005	-0.059967	-0.04715	0.022583	0.23621	0.033112	0.032196	0.001678	0.025177	-0.055695	0.058289	-0.008698	-0.025177	-0.26718	0.082092	-0.2562	-0.13199	-0.09491	0.24445	0.23041	-0.42053	-0.011444	0.042572	-0.013733	-0.50964	0.16113	0.003052	-0.006409
23.845	-0.003357	0.23972	-0.028687	0.032196	-0.01709	-0.053711	-0.045319	0.015564	0.23453	0.022583	-0.021667	0.043335	0.10529	-0.056152	0.19028	0.010223	-0.012817	-0.21973	0.31876	-0.11643	-0.33661	0.038452	0.26779	0.20706	-0.35629	-0.012665	0.10895	-0.010529	-0.47897	0.099945	0.001221	-0.002136
23.846	0.002289	0.2095	0.03891	0.017853	-0.016327	-0.041199	-0.034637	0.019531	0.22858	0.028381	-0.15747	0.003204	0.14282	-0.082855	0.13657	0.016174	-0.009155	-0.14862	0.27679	0.15213	-0.23392	-0.066223	0.21698	0.2243	-0.2182	-0.010071	0.10223	-0.012054	-0.15762	0.10986	0.002441	-0.000916
23.847	0.006256	0.15243	0.062714	-0.023499	-0.016327	-0.062256	-0.044708	0.006714	0.22583	0.035858	-0.085602	0.00885	0.13367	-0.080872	0.54627	0.022125	0.004883	-0.13641	0.062103	0.33829	-0.041351	-0.10346	0.17716	0.21561	-0.12085	-0.017242	0.056152	-0.009918	0.12756	0.03006	0.00061	-0.011444
23.848	0.002136	0.17777	0.023041	-0.011902	-0.019226	-0.074768	-0.024719	0.019684	0.22492	0.02533	0.11551	0.001068	0.11948	-0.049591	0.25742	0.008698	0.011139	-0.18494	-0.029449	0.30441	0.073547	-0.014038	0.22736	0.1413	-0.13412	-0.008698	0.043182	-0.00824	0.059052	-0.018311	0.000916	-0.006409
23.849	0.006714	0.15472	-0.001373	0.002747	-0.010834	-0.058136	-0.049591	0.013428	0.21729	-0.002899	0.18417	0.01297	0.050659	-0.060883	0.45548	0.006409	0.000305	-0.16037	-0.019226	0.30563	0.054169	0.007477	0.22263	-0.013275	-0.17975	-0.001831	0.041351	-0.007935	-0.072937	-0.093384	-0.002136	-0.013733
23.85	0.003204	0.15243	-0.016327	0.019836	-0.005798	-0.074463	-0.020905	0.014343	0.19989	-0.022736	0.10956	0.000458	-0.001984	-0.075684	0.015259	-0.012512	-0.032196	-0.12833	0.066681	0.16754	-0.048065	0.018616	0.25848	-0.20279	-0.032959	0.004883	0.043335	-0.011749	-0.59433	-0.32913	0.000305	-0.011292
23.851	0.004883	0.094147	-0.014496	0.030365	-0.002594	-0.061493	-0.003204	0.016479	0.19257	-0.044403	0.10788	0.009308	-0.005493	-0.025635	-0.20569	-0.010071	-0.019226	-0.13519	0.14633	0.055847	0.009308	-0.06897	0.38971	-0.1535	0.008392	0.000153	0.037994	-0.009308	-0.62851	-0.060272	0.001831	-0.006714
23.852	0.004883	0.12909	-0.020599	0.020142	0.003662	-0.065002	-0.01358	0.001831	0.19791	-0.063324	0.02655	0.003357	-0.019531	-0.008545	-0.28351	0.006256	-0.000305	-0.17502	0.080261	0.007477	0.041199	-0.033417	0.51529	-0.11169	-0.035095	-0.013123	0.065002	-0.009003	-0.27466	0.17548	-0.001068	-0.012665
23.853	0.004425	0.12848	-0.052643	0.040894	-0.024414	-0.068207	-0.029755	0.005798	0.20218	-0.010223	0.072174	-0.001373	-0.011444	-0.027924	0.051117	0.01236	-0.009155	-0.16815	0.16556	0.006409	0.036926	0.039673	0.43411	-0.041656	-0.084839	-0.003357	0.051727	-0.014801	-0.016937	0.12299	0.001526	-0.009766
23.854	0.018463	0.14832	-0.073395	0.035095	-0.020447	-0.11307	-0.039673	0.018921	0.20538	0.01297	-0.11414	0.002594	0.048523	-0.018463	0.65338	0.013733	-0.021362	-0.13062	0.15411	0.006561	0.015411	0.091858	0.21896	0.002441	-0.11749	-0.011902	0.024719	-0.013428	0.53848	0.030212	-0.000916	-0.011444
23.855	0.012207	0.17471	-0.075073	0.008545	-0.008392	-0.12772	-0.027924	0.014343	0.20218	0.009613	-0.13855	0.002594	0.094452	0.007172	-0.074005	0.00351	-0.011597	-0.13992	-0.17349	0.019531	0.020447	0.048065	0.17929	0.06958	0.025787	-0.018005	0.037842	-0.005188	-0.075378	-0.14557	0.000763	-0.000458
23.856	0.011597	0.21255	-0.022278	0.019836	-0.028381	-0.12772	-0.009003	0.000458	0.18799	0.003815	-0.13504	0.002136	0.057526	-0.045166	-0.60837	-0.009003	-0.000305	-0.088043	-0.32837	-0.014343	0.001373	-0.029602	0.090485	-0.030212	0.055695	-0.020599	0.041809	-0.009155	-0.28809	-0.4483	0.003357	-0.007172
23.857	0.010376	0.23163	0.007019	-0.001526	-0.019226	-0.15793	-0.029449	0.015869	0.18387	-0.005798	-0.029602	-0.005951	0.032196	-0.066528	-0.42496	0.001831	-0.010681	-0.043335	-0.38452	-0.031891	-0.004425	-0.0354	-0.38559	-0.2417	0.29541	-0.019226	0.016174	-0.007935	0.1712	-0.51407	0.002899	-0.001221
23.858	0.012054	0.2681	-0.026703	-0.002136	0.010529	-0.1297	-0.043182	0.009155	0.17288	-0.029144	0.040131	0.002136	-0.002899	-0.072479	-0.17502	0.010071	-0.003815	-0.073547	0.043945	-0.076904	-0.022888	-0.039215	-0.44235	-0.36209	0.36194	-0.014801	0.030365	-0.00473	0.54718	-0.27313	0.001068	0.000763
23.859	0.016174	0.24857	-0.02243	0.00061	0.002441	-0.10834	-0.042114	-0.001221	0.15884	-0.028076	0.06073	-0.001526	-0.028839	-0.074768	-0.033417	0.002441	0.007782	-0.063782	-0.048065	-0.062408	-0.040741	-0.051575	-0.40894	-0.40939	0.2269	-0.007324	0.029755	-0.006104	0.26672	0.31464	0.000763	0.012512
23.86	0.019989	0.26718	0.009766	0.019836	-0.007172	-0.095367	-0.041046	0.009155	0.16022	0.006409	-0.046387	0.003052	-0.019226	-0.001678	-0.11658	-0.001526	0.001831	-0.034637	0.14786	-0.052948	-0.043182	-0.058899	-0.48416	-0.19547	0.38925	-0.000305	-0.048981	0.000153	0.81894	0.51849	0.001984	0.007172
23.861	0.02594	0.24384	0.001221	0.014954	-0.014801	-0.11322	-0.023346	-0.003052	0.15457	0.02121	0.001221	-0.001221	-0.003204	0.025177	-0.016632	-0.00412	-0.009613	-0.095215	0.66208	-0.070801	-0.019379	-0.045624	-0.53101	-0.011139	0.60074	-0.001526	-0.022888	-0.001984	0.70267	0.23605	-0.000153	0.006409
23.862	0.009766	0.24048	-0.024719	0.005493	-0.024109	-0.070953	-0.033112	0.00885	0.12817	0.022736	0.00351	-0.005493	0.014801	-0.006409	0.14221	0.000916	-0.001068	-0.14648	0.35919	-0.098572	-0.019226	-0.036316	-0.30746	0.09552	0.51621	-0.007477	0.11581	-0.001984	-0.20386	0.14664	0	0.000763
23.863	0.015564	0.30731	-0.025787	-0.009003	-0.045776	-0.063477	-0.020905	-0.002136	0.11932	0.038605	-0.022888	0.003357	0.064392	-0.003052	0.30426	0.013123	0.001526	-0.087585	-0.21408	-0.059509	0.004425	-0.082397	-0.15366	0.15167	0.24933	-0.00061	0.10956	0.005646	-1.1511	0.060425	0.001068	0
23.864	0.009613	0.29892	-0.022736	-0.008698	-0.045166	-0.073547	-0.023346	0.018921	0.12497	0.016174	-0.067444	-0.001373	0.15213	0.043945	0.09201	0.009155	0.022888	-0.080109	0.1683	-0.00412	0.010529	-0.1294	-0.062561	0.10513	-0.014801	0.008087	-0.17716	-0.00351	1.1534	0.064087	0.000458	-0.004425
23.865	0.013275	0.29923	0.010071	-0.025024	0.006104	-0.071411	-0.02533	0.005798	0.11032	-0.004578	-0.1181	0.00061	0.15335	0.042572	-0.006409	0.015259	0.037079	-0.091705	0.52506	-0.007477	-0.006866	-0.13825	0.059357	0.159	-0.12436	-0.007935	-0.1506	-0.009155	-0.010986	0.095825	0.001373	-0.006561
23.866	0.011444	0.29221	0.062866	0.001984	0.006104	-0.038757	-0.010376	0.020142	0.11078	-0.029602	0.023956	-0.00412	0.13168	0.038147	-0.019226	0.006714	0.01236	-0.099945	0.49622	0.040741	-0.038147	-0.096893	0.11704	0.13382	0.11917	-0.009613	0.069885	-0.003357	-0.99014	0.019531	0.001678	-0.012817
23.867	0.013885	0.28915	0.074158	0.00351	0.005341	-0.045013	-0.018616	0.005493	0.12558	-0.049896	0.088654	-0.005188	0.10132	0.025177	-0.076752	0.003967	0.012665	-0.13916	0.25375	0.083466	-0.11154	-0.013733	0.12375	-0.022736	0.2243	-0.012817	0.1355	-0.005646	-0.25116	0.028076	-0.001678	-0.009918
23.868	0.010834	0.30701	-0.002747	0.007324	0.002747	-0.033417	-0.036316	0.007935	0.11231	-0.027771	0.068817	0.002136	0.10605	0.014801	-0.015411	0.009155	-0.033112	-0.18555	-0.15228	0.074158	-0.17685	0.075836	0.083771	-0.13367	0.32928	-0.014191	0.11429	-0.009918	0.37705	0.01297	0.002747	-0.012817
23.869	0.005035	0.3421	0.010986	0.018158	-0.014343	-0.024109	-0.026093	0.003204	0.11276	-0.00061	0.006714	0.003052	0.083618	-0.001373	0.44403	-0.003357	-0.037689	-0.1709	-0.13672	0.071869	-0.015564	0.11704	0.058746	-0.14603	0.24078	-0.00946	0.031891	-0.013733	0.2504	-0.092468	-0.00061	-0.009613
